<svg id="Layer_1" enable-background="new 0 0 512 512" height="512" viewBox="0 0 512 512" width="512" xmlns="http://www.w3.org/2000/svg" xmlns:xlink="http://www.w3.org/1999/xlink"><linearGradient id="SVGID_1_" gradientUnits="userSpaceOnUse" x1="256" x2="256" y1="512" y2="0"><stop offset="0" stop-color="#009efb"/><stop offset="1" stop-color="#68c185"/></linearGradient><path clip-rule="evenodd" d="m256 0c141.385 0 256 114.615 256 256s-114.615 256-256 256-256-114.615-256-256 114.615-256 256-256zm104.897 264.624c2.847-2.072 4.389-5.102 4.389-8.624 0-3.521-1.542-6.551-4.389-8.624l-162.032-117.93c-3.326-2.421-7.449-2.748-11.115-.882s-5.828 5.392-5.828 9.506v235.86c0 4.114 2.161 7.64 5.828 9.506 3.666 1.866 7.789 1.539 11.115-.882z" fill="url(#SVGID_1_)" fill-rule="evenodd"/></svg>